<?xml version="1.0" encoding="utf-8"?>
<!-- Generator: Adobe Illustrator 19.1.0, SVG Export Plug-In . SVG Version: 6.00 Build 0)  -->
<svg version="1.1" id="Layer_1" xmlns="http://www.w3.org/2000/svg" xmlns:xlink="http://www.w3.org/1999/xlink" x="0px" y="0px"
	 width="100px" height="100px" viewBox="0 0 100 100" style="enable-background:new 0 0 100 100;" xml:space="preserve">
<style type="text/css">
	.st0{fill:none;stroke:#BE1E2D;stroke-miterlimit:10;stroke-dasharray:11.8383,11.8383;}
	.st1{fill:#F7941E;}
	.st2{fill:#FFFFFF;}
</style>
<g>
	<circle class="st0" cx="50" cy="50" r="49">
        
        <animateTransform attributeName="transform"
                          attribute="XML"
                          type="rotate"
                          from="0 50 50" 
                          to="360 50 50"
                          dur="10s"
                          repeatCount="indefinite" />
        
    </circle>
</g>
    
<circle class="st1" cx="50" cy="50" r="39"/>
<path class="st2" d="M64.1,40.5H35.9c-2.5,0-4.5-2-4.5-4.5v0c0-2.5,2-4.5,4.5-4.5h28.3c2.5,0,4.5,2,4.5,4.5v0
	C68.6,38.5,66.6,40.5,64.1,40.5z">
    
    <animateTransform attributeName="transform"
                      attribute="XML"
                      type="translate"
                      begin=".3"
                      dur="1s"
                      values="6, 0; -6, 0; 6 ,0"
                      repeatCount="indefinite" />
    
    </path>
<path class="st2" d="M64.1,53.5H35.9c-2.5,0-4.5-2-4.5-4.5v0c0-2.5,2-4.5,4.5-4.5h28.3c2.5,0,4.5,2,4.5,4.5v0
	C68.6,51.5,66.6,53.5,64.1,53.5z">
    
    <animateTransform attributeName="transform"
                      attribute="XML"
                      type="translate"
                      begin=".2"
                      dur="1s"
                      values="6, 0; -6, 0; 6 ,0"
                      repeatCount="indefinite" />
    </path>
    
<path class="st2" d="M64.1,66.5H35.9c-2.5,0-4.5-2-4.5-4.5v0c0-2.5,2-4.5,4.5-4.5h28.3c2.5,0,4.5,2,4.5,4.5v0
	C68.6,64.5,66.6,66.5,64.1,66.5z">
    
    <animateTransform attributeName="transform"
                      attribute="XML"
                      type="translate"
                      begin=".1"
                      dur="1s"
                      values="6, 0; -6, 0; 6 ,0"
                      repeatCount="indefinite" />
    </path>
    
</svg>
