<?xml version="1.0" encoding="utf-8"?>
<!-- Generator: Adobe Illustrator 19.1.0, SVG Export Plug-In . SVG Version: 6.00 Build 0)  -->
<svg version="1.1" id="Layer_1" xmlns="http://www.w3.org/2000/svg" xmlns:xlink="http://www.w3.org/1999/xlink" x="0px" y="0px"
	 viewBox="0 0 800 800" style="enable-background:new 0 0 800 800;" xml:space="preserve">
<style type="text/css">
	.st0{fill:#FFFFFF;stroke:#662D91;stroke-width:4;stroke-miterlimit:10;}
	.st1{fill:#662D91;}
</style>
<circle class="st0" cx="414" cy="379" r="190"/>
<g>
	<g>
		<path class="st1" d="M309.5,304.9c3.8,17.8,3,36.3-2.5,53.6c-2.4,7.7-5.7,18.4-12.5,23.4c-4.4,3.3-9.2,1.5-11.6-3.3
			c-2.4-4.8-0.9-10.6,0.3-15.6c4.1-16.8,11.4-34.3,26.7-43.9c13.9-8.7,34.4-8,43.2,7.7c5.2,9.4,2.3,19.9-8.3,23.1
			c-9.9,3-21.1,1.4-30.8-1.8c-3.1-1-4.4,3.8-1.3,4.8c15.6,5.2,49.9,7.1,48-18.1c-1.5-19.8-23.8-30-41.4-25.4
			c-22.2,5.9-34.2,27.4-39.9,48c-2.5,9.1-5.7,21.4,2.9,28.4c7.5,6.1,15.8,0.8,20.4-6c7.2-10.7,11-24.6,12.9-37.2
			c1.9-13.1,1.4-26.4-1.4-39.3C313.7,300.4,308.9,301.8,309.5,304.9L309.5,304.9z"/>
	</g>
</g>
<g>
	<g>
		<path class="st1" d="M515.9,370.4c-15.4,10-34.3,8-50.9,2.8c-8.7-2.7-17.2-6.3-25.7-9.5c-8-3-16.9-6.8-25.6-5.5
			c-11.2,1.7-19.9,16.7-8.2,24.1c11,7,29.6,5.7,34.4-8c1.1-3-3.8-4.4-4.8-1.3c-5,14.3-36.2,8.3-28.9-4.5c4.4-7.6,14.4-5.7,21.4-3.6
			c6.7,2.1,13.2,4.7,19.7,7.3c22.4,8.7,49.1,16.9,71.1,2.6C521.1,373,518.6,368.7,515.9,370.4L515.9,370.4z"/>
	</g>
</g>
<g>
	<g>
		<path class="st1" d="M463.2,384.5c3.9,24,1.4,51.3-17.5,68.7c-8.6,7.9-22.6,14.3-33.2,6.4c-2.3-1.7-4.1-3.8-5.2-6.4
			c-0.4-0.8-1.5-3.4-1-4.3c0.6-1.1,2-0.6,3.1-0.6c6.6-0.2,13.1-0.4,19.7-0.6c3.2-0.1,3.2-5.1,0-5c-5,0.1-10,0.3-15,0.4
			c-3.1,0.1-7.3-0.7-10.1,0.8c-4.6,2.3-2.5,9.2-0.6,12.8c6.6,12.5,22.3,13.7,33.9,8.3c30.4-14.1,35.5-52.5,30.7-81.8
			C467.5,380,462.7,381.3,463.2,384.5L463.2,384.5z"/>
	</g>
</g>
</svg>
